<svg preserveAspectRatio="none" overflow="visible" style="display: block;" width="512" height="512" viewBox="0 0 512 512" fill="none" xmlns="http://www.w3.org/2000/svg">
<g id="A / Deep gold / Extended arc + prominent constellation">
<rect width="512" height="512" rx="110" fill="url(#paint0_linear_0_4)"/>
<path id="O / Original upper-right arc" d="M271 112.5C338 115.5 396 170.5 403 232.5C409.5 287.5 387.5 329.5 353.5 353" stroke="#8E6712" stroke-width="11" stroke-linecap="round" stroke-linejoin="round"/>
<path id="Star / Original 1 &#194;&#183; upper" d="M191.5 111L195.9 126.6L211.5 131L195.9 135.4L191.5 151L187.1 135.4L171.5 131L187.1 126.6L191.5 111Z" fill="#8E6712"/>
<path id="Star / Original 2 &#194;&#183; upper-left" d="M154.5 154.5L157.25 164.25L167 167L157.25 169.75L154.5 179.5L151.75 169.75L142 167L151.75 164.25L154.5 154.5Z" fill="#8E6712"/>
<path id="Star / Original 3 &#194;&#183; inward" d="M204 179.5L206.09 186.91L213.5 189L206.09 191.09L204 198.5L201.91 191.09L194.5 189L201.91 186.91L204 179.5Z" fill="#8E6712"/>
<path id="O / Extended lower arc" d="M146.5 299C154 319 166 338 183.5 352C212.5 375 248.5 386.5 290.5 382.5C298 381.786 305.2 380.3 312 378" stroke="#8E6712" stroke-width="11" stroke-linecap="round" stroke-linejoin="round"/>
<path id="Star / Original 4 &#194;&#183; left" d="M143 238.5L146.74 251.76L160 255.5L146.74 259.24L143 272.5L139.26 259.24L126 255.5L139.26 251.76L143 238.5Z" fill="#8E6712"/>
<path id="Star / Original 5 &#194;&#183; lower-right" d="M338.5 352.5L341.14 361.86L350.5 364.5L341.14 367.14L338.5 376.5L335.86 367.14L326.5 364.5L335.86 361.86L338.5 352.5Z" fill="#8E6712"/>
</g>
<defs>
<linearGradient id="paint0_linear_0_4" x1="256" y1="0" x2="256" y2="512" gradientUnits="userSpaceOnUse">
<stop stop-color="#F0D07B"/>
<stop offset="1" stop-color="#E6BA4E"/>
</linearGradient>
</defs>
</svg>
